<?xml version="1.0" encoding="UTF-8" standalone="no"?>
<!-- Created with Inkscape (http://www.inkscape.org/) -->

<svg
   width="512"
   height="512"
   viewBox="0 0 512 512"
   version="1.1"
   id="svg1"
   xml:space="preserve"
   sodipodi:docname="favicon.svg"
   inkscape:export-filename="bitmap.svg"
   inkscape:export-xdpi="96"
   inkscape:export-ydpi="96"
   inkscape:version="1.4.3 (0d15f75, 2025-12-25)"
   xmlns:inkscape="http://www.inkscape.org/namespaces/inkscape"
   xmlns:sodipodi="http://sodipodi.sourceforge.net/DTD/sodipodi-0.dtd"
   xmlns:xlink="http://www.w3.org/1999/xlink"
   xmlns="http://www.w3.org/2000/svg"
   xmlns:svg="http://www.w3.org/2000/svg"><sodipodi:namedview
     id="namedview1"
     pagecolor="#000000"
     bordercolor="#000000"
     borderopacity="0.25"
     inkscape:showpageshadow="2"
     inkscape:pageopacity="0.0"
     inkscape:pagecheckerboard="0"
     inkscape:deskcolor="#d1d1d1"
     inkscape:zoom="1.4142136"
     inkscape:cx="206.47518"
     inkscape:cy="319.25871"
     inkscape:window-width="2560"
     inkscape:window-height="1017"
     inkscape:window-x="-8"
     inkscape:window-y="-8"
     inkscape:window-maximized="1"
     inkscape:current-layer="svg1" /><defs
     id="defs1"><linearGradient
       id="linearGradient11"
       inkscape:collect="always"><stop
         style="stop-color:#f32424;stop-opacity:1;"
         offset="0"
         id="stop14" /><stop
         style="stop-color:#ec8333;stop-opacity:1;"
         offset="1"
         id="stop13" /></linearGradient><linearGradient
       id="linearGradient8"
       inkscape:collect="always"><stop
         style="stop-color:#ec8333;stop-opacity:1;"
         offset="0"
         id="stop9" /><stop
         style="stop-color:#f44343;stop-opacity:1;"
         offset="1"
         id="stop11" /></linearGradient><radialGradient
       inkscape:collect="always"
       xlink:href="#linearGradient8"
       id="radialGradient10"
       cx="94.752312"
       cy="102.53049"
       fx="94.752312"
       fy="102.53049"
       r="43.840618"
       gradientUnits="userSpaceOnUse"
       gradientTransform="matrix(0.30436057,0.9525569,-1.1576023,0.36987658,184.60297,-25.650107)" /><radialGradient
       inkscape:collect="always"
       xlink:href="#linearGradient11"
       id="radialGradient13"
       cx="368.71716"
       cy="317.54553"
       fx="368.71716"
       fy="317.54553"
       r="43.840618"
       gradientUnits="userSpaceOnUse"
       gradientTransform="matrix(2.136935,1.8898261,-1.5017792,1.6981483,79.906957,-898.26186)" /></defs><path
     style="fill:none;fill-opacity:1;stroke:#ec8333;stroke-width:19.7153;stroke-dasharray:none;stroke-opacity:1"
     id="path1"
     transform="matrix(-0.88372713,0.46800251,-0.50252949,-0.86456007,0,0)"
     sodipodi:type="arc"
     sodipodi:cx="-99.0923"
     sodipodi:cy="-450.84912"
     sodipodi:rx="115.57661"
     sodipodi:ry="323.53275"
     sodipodi:start="5.7713712"
     sodipodi:end="3.9722051"
     sodipodi:open="true"
     sodipodi:arc-type="arc"
     d="M 1.6740271,-609.30242 A 115.57661,323.53275 0 0 1 -34.988208,-181.6419 115.57661,323.53275 0 0 1 -190.10843,-251.44953 115.57661,323.53275 0 0 1 -177.0399,-689.72776" /><path
     style="fill:none;fill-opacity:1;stroke:#ec8333;stroke-width:20.333;stroke-dasharray:none;stroke-opacity:1"
     id="ellipse2"
     transform="matrix(0.83771008,0.54611522,-0.52291341,0.85238581,0,0)"
     sodipodi:type="arc"
     sodipodi:cx="486.0661"
     sodipodi:cy="92.42144"
     sodipodi:rx="116.97488"
     sodipodi:ry="340.01031"
     sodipodi:start="2.2854867"
     sodipodi:end="0.43379329"
     sodipodi:arc-type="arc"
     d="m 409.40269,349.22994 a 116.97488,340.01031 0 0 1 -18.46796,-454.65912 116.97488,340.01031 0 0 1 154.00605,-95.95421 116.97488,340.01031 0 0 1 47.26574,436.71653"
     sodipodi:open="true" /><path
     style="fill:none;fill-opacity:1;stroke:#ec8333;stroke-width:20.8833;stroke-dasharray:none;stroke-opacity:1"
     id="ellipse3"
     transform="matrix(0.01546951,-0.99988034,0.99991786,0.01281709,0,0)"
     d="m -479.26519,532.03691 a 115.372,363.64554 0 0 1 20.53393,-474.260209 115.372,363.64554 0 0 1 151.86065,0.724631 115.372,363.64554 0 0 1 20.07826,474.453998"
     sodipodi:type="arc"
     sodipodi:arc-type="arc"
     sodipodi:start="2.5588839"
     sodipodi:end="0.58573653"
     sodipodi:ry="363.64554"
     sodipodi:rx="115.372"
     sodipodi:cy="331.92725"
     sodipodi:cx="-382.93243"
     sodipodi:open="true" /><path
     style="fill:url(#radialGradient10);stroke:none;stroke-width:21.0169;stroke-dasharray:none;stroke-opacity:1"
     id="path3"
     sodipodi:type="arc"
     sodipodi:cx="117.37973"
     sodipodi:cy="120.91527"
     sodipodi:rx="43.840618"
     sodipodi:ry="43.840618"
     sodipodi:start="0.58308206"
     sodipodi:end="0.36144181"
     sodipodi:open="true"
     sodipodi:arc-type="arc"
     d="M 153.97655,145.05388 A 43.840618,43.840618 0 0 1 95.304955,158.79276 43.840618,43.840618 0 0 1 78.337836,100.97209 43.840618,43.840618 0 0 1 135.13009,80.828805 43.840618,43.840618 0 0 1 158.38772,136.41833" /><path
     style="fill:url(#radialGradient13);fill-opacity:1;stroke:none;stroke-width:21.0169;stroke-dasharray:none;stroke-opacity:1"
     id="path3-5"
     sodipodi:type="arc"
     sodipodi:cx="342.86499"
     sodipodi:cy="380.92239"
     sodipodi:rx="43.840618"
     sodipodi:ry="43.840618"
     sodipodi:start="0.58308206"
     sodipodi:end="0.36144181"
     sodipodi:open="true"
     sodipodi:arc-type="arc"
     d="m 379.46181,405.06101 a 43.840618,43.840618 0 0 1 -58.67159,13.73887 43.840618,43.840618 0 0 1 -16.96712,-57.82066 43.840618,43.840618 0 0 1 56.79225,-20.14329 43.840618,43.840618 0 0 1 23.25763,55.58953" /><rect
     style="fill:#ec8333;stroke-width:20;fill-opacity:1"
     id="rect1"
     width="6.75"
     height="19"
     x="507"
     y="492.75" /></svg>
